G04 #@! TF.GenerationSoftware,KiCad,Pcbnew,(5.1.5)-3*
G04 #@! TF.CreationDate,2020-05-31T17:41:30+02:00*
G04 #@! TF.ProjectId,Sirui-VH-10-plate,53697275-692d-4564-982d-31302d706c61,rev?*
G04 #@! TF.SameCoordinates,Original*
G04 #@! TF.FileFunction,Profile,NP*
%FSLAX46Y46*%
G04 Gerber Fmt 4.6, Leading zero omitted, Abs format (unit mm)*
G04 Created by KiCad (PCBNEW (5.1.5)-3) date 2020-05-31 17:41:30*
%MOMM*%
%LPD*%
G04 APERTURE LIST*
%ADD10C,0.050000*%
G04 APERTURE END LIST*
D10*
X164999998Y-64000000D02*
G75*
G02X111000000Y-64000000I-26999999J25999999D01*
G01*
X177000000Y-151000000D02*
X164999999Y-151000001D01*
X109000001Y-151000001D02*
G75*
G02X164999999Y-151000001I27999999J-28999999D01*
G01*
X98000000Y-68000000D02*
G75*
G02X100000000Y-66000000I2000000J0D01*
G01*
X111000000Y-64000000D02*
X100000000Y-66000000D01*
X97000000Y-151000000D02*
G75*
G02X95000000Y-149000000I0J2000000D01*
G01*
X180000000Y-148000000D02*
G75*
G02X177000000Y-151000000I-3000000J0D01*
G01*
X178000000Y-120000000D02*
G75*
G02X180000000Y-122000000I0J-2000000D01*
G01*
X171000000Y-120000000D02*
G75*
G02X169000000Y-118000000I0J2000000D01*
G01*
X169000000Y-93500000D02*
G75*
G02X170500000Y-92000000I1500000J0D01*
G01*
X177000000Y-90000000D02*
G75*
G02X175000000Y-92000000I-2000000J0D01*
G01*
X174727931Y-65998703D02*
G75*
G02X177000000Y-69000000I-727931J-2911725D01*
G01*
X165000000Y-64000000D02*
X174727607Y-66000000D01*
X98000000Y-90000000D02*
X95000000Y-93000000D01*
X98000000Y-68000000D02*
X98000000Y-90000000D01*
X177000000Y-90000000D02*
X177000000Y-69000000D01*
X170500000Y-92000000D02*
X175000000Y-92000000D01*
X169000000Y-118000000D02*
X169000000Y-93500000D01*
X178000000Y-120000000D02*
X171000000Y-120000000D01*
X180000000Y-148000000D02*
X180000000Y-122000000D01*
X95000000Y-149000000D02*
X95000000Y-93000000D01*
X97000000Y-151000000D02*
X109000001Y-151000001D01*
M02*
